<svg width="189" height="38" viewBox="0 0 189 38" fill="none" xmlns="http://www.w3.org/2000/svg">
<rect y="4" width="30" height="30" rx="6" fill="#F7F7F7"/>
<path d="M23 25C20.6988 27.219 18.5 28.4898 15 28.4898C11.7138 28.4898 9.08988 27.0152 7 25" stroke="#1E252B" stroke-width="3" stroke-linecap="round"/>
<path d="M9.14438 23C8.83771 23 8.57104 22.8867 8.34438 22.66C8.11771 22.4333 8.00438 22.1667 8.00438 21.86V9.54C8.00438 9.23333 8.11771 8.96667 8.34438 8.74C8.57104 8.51333 8.83771 8.4 9.14438 8.4H10.2844C10.631 8.4 10.9444 8.49333 11.2244 8.68C11.5044 8.86667 11.711 9.12 11.8444 9.44L14.9444 16.98C14.9444 16.9933 14.951 17 14.9644 17C14.9777 17 14.9844 16.9933 14.9844 16.98L18.0844 9.44C18.2177 9.12 18.4244 8.86667 18.7044 8.68C18.9844 8.49333 19.2977 8.4 19.6444 8.4H20.8644C21.171 8.4 21.4377 8.51333 21.6644 8.74C21.891 8.96667 22.0044 9.23333 22.0044 9.54V21.86C22.0044 22.1667 21.891 22.4333 21.6644 22.66C21.4377 22.8867 21.171 23 20.8644 23H19.9044C19.5977 23 19.331 22.8867 19.1044 22.66C18.891 22.4333 18.7844 22.1667 18.7844 21.86V14.08C18.7844 14.0667 18.7777 14.06 18.7644 14.06C18.7377 14.06 18.7244 14.0667 18.7244 14.08L16.8044 18.62C16.671 18.94 16.4577 19.1933 16.1644 19.38C15.8844 19.5667 15.571 19.66 15.2244 19.66H14.7044C14.3577 19.66 14.0377 19.5667 13.7444 19.38C13.4644 19.1933 13.2577 18.94 13.1244 18.62L11.2044 14.08C11.2044 14.0667 11.191 14.06 11.1644 14.06C11.151 14.06 11.1444 14.0667 11.1444 14.08V21.86C11.1444 22.1667 11.031 22.4333 10.8044 22.66C10.591 22.8867 10.331 23 10.0244 23H9.14438Z" fill="#1E252B"/>
<path d="M42.002 28V11.048H46.188L48.918 18.588C49.0913 19.0733 49.256 19.5847 49.412 20.122C49.568 20.6593 49.7327 21.188 49.906 21.708H50.01C50.1833 21.188 50.3393 20.6593 50.478 20.122C50.634 19.5847 50.7987 19.0733 50.972 18.588L53.65 11.048H57.81V28H54.326V21.786C54.326 21.2313 54.352 20.616 54.404 19.94C54.4733 19.2467 54.5427 18.5533 54.612 17.86C54.6987 17.1667 54.768 16.5513 54.82 16.014H54.716L53.338 20.044L50.92 26.518H48.814L46.396 20.044L45.044 16.014H44.94C45.0093 16.5513 45.0787 17.1667 45.148 17.86C45.2173 18.5533 45.278 19.2467 45.33 19.94C45.3993 20.616 45.434 21.2313 45.434 21.786V28H42.002ZM64.7447 28.312C63.566 28.312 62.63 27.9393 61.9367 27.194C61.2434 26.4313 60.8967 25.504 60.8967 24.412C60.8967 23.06 61.4687 22.0027 62.6127 21.24C63.7567 20.4773 65.6027 19.966 68.1507 19.706C68.116 19.134 67.9427 18.6833 67.6307 18.354C67.336 18.0073 66.8334 17.834 66.1227 17.834C65.5854 17.834 65.0394 17.938 64.4847 18.146C63.93 18.354 63.3407 18.64 62.7167 19.004L61.3387 16.482C62.1534 15.9793 63.02 15.572 63.9387 15.26C64.8747 14.948 65.8454 14.792 66.8507 14.792C68.4974 14.792 69.7627 15.2687 70.6467 16.222C71.5307 17.1753 71.9727 18.64 71.9727 20.616V28H68.8527L68.5927 26.674H68.4887C67.9514 27.1593 67.3707 27.558 66.7467 27.87C66.14 28.1647 65.4727 28.312 64.7447 28.312ZM66.0447 25.348C66.478 25.348 66.8507 25.2527 67.1627 25.062C67.492 24.854 67.8214 24.5853 68.1507 24.256V21.994C66.7987 22.1673 65.8627 22.4447 65.3427 22.826C64.8227 23.19 64.5627 23.6233 64.5627 24.126C64.5627 24.542 64.6927 24.854 64.9527 25.062C65.23 25.2527 65.594 25.348 66.0447 25.348ZM75.2056 28V15.104H78.3256L78.5856 17.366H78.6896C79.1576 16.4993 79.721 15.858 80.3796 15.442C81.0383 15.0087 81.697 14.792 82.3556 14.792C82.7196 14.792 83.023 14.818 83.2656 14.87C83.5083 14.9047 83.7163 14.9653 83.8896 15.052L83.2656 18.354C83.0403 18.2847 82.815 18.2327 82.5896 18.198C82.3816 18.1633 82.139 18.146 81.8616 18.146C81.3763 18.146 80.865 18.328 80.3276 18.692C79.8076 19.0387 79.3743 19.6453 79.0276 20.512V28H75.2056ZM85.565 28V9.774H89.283V20.226H89.387L93.469 15.104H97.629L93.105 20.408L97.967 28H93.833L90.921 22.982L89.283 24.828V28H85.565ZM104.845 28.312C103.614 28.312 102.505 28.0433 101.517 27.506C100.529 26.9687 99.7488 26.1973 99.1768 25.192C98.6048 24.1867 98.3188 22.9733 98.3188 21.552C98.3188 20.148 98.6048 18.9433 99.1768 17.938C99.7661 16.9327 100.529 16.1613 101.465 15.624C102.401 15.0693 103.38 14.792 104.403 14.792C105.633 14.792 106.647 15.0693 107.445 15.624C108.259 16.1613 108.866 16.898 109.265 17.834C109.681 18.7527 109.889 19.8013 109.889 20.98C109.889 21.3093 109.871 21.6387 109.837 21.968C109.802 22.28 109.767 22.514 109.733 22.67H102.011C102.184 23.606 102.574 24.2993 103.181 24.75C103.787 25.1833 104.515 25.4 105.365 25.4C106.283 25.4 107.211 25.114 108.147 24.542L109.421 26.856C108.762 27.3067 108.025 27.662 107.211 27.922C106.396 28.182 105.607 28.312 104.845 28.312ZM101.985 20.148H106.639C106.639 19.4373 106.465 18.8567 106.119 18.406C105.789 17.938 105.243 17.704 104.481 17.704C103.891 17.704 103.363 17.912 102.895 18.328C102.427 18.7267 102.123 19.3333 101.985 20.148ZM117.242 28.312C115.647 28.312 114.503 27.8527 113.81 26.934C113.134 26.0153 112.796 24.8107 112.796 23.32V18.094H111.028V15.26L113.004 15.104L113.446 11.672H116.618V15.104H119.712V18.094H116.618V23.268C116.618 23.996 116.765 24.5247 117.06 24.854C117.372 25.166 117.779 25.322 118.282 25.322C118.49 25.322 118.698 25.296 118.906 25.244C119.131 25.192 119.331 25.1313 119.504 25.062L120.102 27.844C119.773 27.948 119.365 28.052 118.88 28.156C118.412 28.26 117.866 28.312 117.242 28.312ZM122.541 28V11.048H126.727L129.457 18.588C129.63 19.0733 129.795 19.5847 129.951 20.122C130.107 20.6593 130.272 21.188 130.445 21.708H130.549C130.722 21.188 130.878 20.6593 131.017 20.122C131.173 19.5847 131.338 19.0733 131.511 18.588L134.189 11.048H138.349V28H134.865V21.786C134.865 21.2313 134.891 20.616 134.943 19.94C135.012 19.2467 135.082 18.5533 135.151 17.86C135.238 17.1667 135.307 16.5513 135.359 16.014H135.255L133.877 20.044L131.459 26.518H129.353L126.935 20.044L125.583 16.014H125.479C125.548 16.5513 125.618 17.1667 125.687 17.86C125.756 18.5533 125.817 19.2467 125.869 19.94C125.938 20.616 125.973 21.2313 125.973 21.786V28H122.541ZM145.284 28.312C144.105 28.312 143.169 27.9393 142.476 27.194C141.782 26.4313 141.436 25.504 141.436 24.412C141.436 23.06 142.008 22.0027 143.152 21.24C144.296 20.4773 146.142 19.966 148.69 19.706C148.655 19.134 148.482 18.6833 148.17 18.354C147.875 18.0073 147.372 17.834 146.662 17.834C146.124 17.834 145.578 17.938 145.024 18.146C144.469 18.354 143.88 18.64 143.256 19.004L141.878 16.482C142.692 15.9793 143.559 15.572 144.478 15.26C145.414 14.948 146.384 14.792 147.39 14.792C149.036 14.792 150.302 15.2687 151.186 16.222C152.07 17.1753 152.512 18.64 152.512 20.616V28H149.392L149.132 26.674H149.028C148.49 27.1593 147.91 27.558 147.286 27.87C146.679 28.1647 146.012 28.312 145.284 28.312ZM146.584 25.348C147.017 25.348 147.39 25.2527 147.702 25.062C148.031 24.854 148.36 24.5853 148.69 24.256V21.994C147.338 22.1673 146.402 22.4447 145.882 22.826C145.362 23.19 145.102 23.6233 145.102 24.126C145.102 24.542 145.232 24.854 145.492 25.062C145.769 25.2527 146.133 25.348 146.584 25.348ZM160.254 28.312C158.659 28.312 157.515 27.8527 156.822 26.934C156.146 26.0153 155.808 24.8107 155.808 23.32V18.094H154.04V15.26L156.016 15.104L156.458 11.672H159.63V15.104H162.724V18.094H159.63V23.268C159.63 23.996 159.777 24.5247 160.072 24.854C160.384 25.166 160.791 25.322 161.294 25.322C161.502 25.322 161.71 25.296 161.918 25.244C162.143 25.192 162.342 25.1313 162.516 25.062L163.114 27.844C162.784 27.948 162.377 28.052 161.892 28.156C161.424 28.26 160.878 28.312 160.254 28.312ZM170.556 28.312C169.325 28.312 168.216 28.0433 167.228 27.506C166.24 26.9687 165.46 26.1973 164.888 25.192C164.316 24.1867 164.03 22.9733 164.03 21.552C164.03 20.148 164.316 18.9433 164.888 17.938C165.477 16.9327 166.24 16.1613 167.176 15.624C168.112 15.0693 169.091 14.792 170.114 14.792C171.344 14.792 172.358 15.0693 173.156 15.624C173.97 16.1613 174.577 16.898 174.976 17.834C175.392 18.7527 175.6 19.8013 175.6 20.98C175.6 21.3093 175.582 21.6387 175.548 21.968C175.513 22.28 175.478 22.514 175.444 22.67H167.722C167.895 23.606 168.285 24.2993 168.892 24.75C169.498 25.1833 170.226 25.4 171.076 25.4C171.994 25.4 172.922 25.114 173.858 24.542L175.132 26.856C174.473 27.3067 173.736 27.662 172.922 27.922C172.107 28.182 171.318 28.312 170.556 28.312ZM167.696 20.148H172.35C172.35 19.4373 172.176 18.8567 171.83 18.406C171.5 17.938 170.954 17.704 170.192 17.704C169.602 17.704 169.074 17.912 168.606 18.328C168.138 18.7267 167.834 19.3333 167.696 20.148ZM182.037 28.312C181.187 28.312 180.312 28.1473 179.411 27.818C178.527 27.4887 177.755 27.0553 177.097 26.518L178.813 24.126C179.402 24.5593 179.965 24.8973 180.503 25.14C181.057 25.3653 181.603 25.478 182.141 25.478C182.713 25.478 183.129 25.3827 183.389 25.192C183.649 24.984 183.779 24.7153 183.779 24.386C183.779 24.0913 183.649 23.8487 183.389 23.658C183.146 23.4673 182.825 23.294 182.427 23.138C182.028 22.9647 181.603 22.7913 181.153 22.618C180.633 22.41 180.113 22.15 179.593 21.838C179.09 21.526 178.665 21.1273 178.319 20.642C177.972 20.1393 177.799 19.5327 177.799 18.822C177.799 17.626 178.249 16.6553 179.151 15.91C180.069 15.1647 181.265 14.792 182.739 14.792C183.727 14.792 184.593 14.9653 185.339 15.312C186.101 15.6413 186.751 16.014 187.289 16.43L185.573 18.718C185.122 18.3713 184.671 18.1027 184.221 17.912C183.77 17.7213 183.319 17.626 182.869 17.626C181.881 17.626 181.387 17.964 181.387 18.64C181.387 19.056 181.629 19.3767 182.115 19.602C182.617 19.81 183.198 20.0353 183.857 20.278C184.411 20.4687 184.949 20.72 185.469 21.032C186.006 21.3267 186.448 21.7253 186.795 22.228C187.159 22.7133 187.341 23.3547 187.341 24.152C187.341 25.3133 186.89 26.3013 185.989 27.116C185.087 27.9133 183.77 28.312 182.037 28.312Z" fill="white"/>
</svg>
